<mxfile host="app.diagrams.net" modified="2023-09-28T06:17:00.647Z" agent="Mozilla/5.0 (Windows NT 10.0; Win64; x64) AppleWebKit/537.36 (KHTML, like Gecko) Chrome/116.0.0.0 Safari/537.36" etag="cKZxA2gjIxhSiPV_kly3" version="21.8.2" type="github">
  <diagram name="第 1 页" id="WOFCl0wZFw0B4w0VFE5H">
    <mxGraphModel dx="1434" dy="758" grid="1" gridSize="10" guides="1" tooltips="1" connect="1" arrows="1" fold="1" page="1" pageScale="1" pageWidth="827" pageHeight="1169" math="0" shadow="0">
      <root>
        <mxCell id="0" />
        <mxCell id="1" parent="0" />
        <mxCell id="JS7kzMShgllTpScdHAG9-31" value="" style="edgeStyle=orthogonalEdgeStyle;rounded=0;orthogonalLoop=1;jettySize=auto;html=1;" edge="1" parent="1" source="JS7kzMShgllTpScdHAG9-3" target="JS7kzMShgllTpScdHAG9-4">
          <mxGeometry relative="1" as="geometry" />
        </mxCell>
        <mxCell id="JS7kzMShgllTpScdHAG9-3" value="填入团购信息，选择物流方式：快递、自提" style="rounded=1;whiteSpace=wrap;html=1;" vertex="1" parent="1">
          <mxGeometry x="420" y="160" width="120" height="60" as="geometry" />
        </mxCell>
        <mxCell id="JS7kzMShgllTpScdHAG9-32" value="" style="edgeStyle=orthogonalEdgeStyle;rounded=0;orthogonalLoop=1;jettySize=auto;html=1;" edge="1" parent="1" source="JS7kzMShgllTpScdHAG9-4" target="JS7kzMShgllTpScdHAG9-6">
          <mxGeometry relative="1" as="geometry" />
        </mxCell>
        <mxCell id="JS7kzMShgllTpScdHAG9-4" value="发布团购" style="rounded=1;whiteSpace=wrap;html=1;" vertex="1" parent="1">
          <mxGeometry x="420" y="260" width="120" height="60" as="geometry" />
        </mxCell>
        <mxCell id="JS7kzMShgllTpScdHAG9-5" value="下单购买" style="rounded=1;whiteSpace=wrap;html=1;" vertex="1" parent="1">
          <mxGeometry x="170" y="450" width="120" height="60" as="geometry" />
        </mxCell>
        <mxCell id="JS7kzMShgllTpScdHAG9-19" style="edgeStyle=orthogonalEdgeStyle;rounded=0;orthogonalLoop=1;jettySize=auto;html=1;entryX=0.5;entryY=0;entryDx=0;entryDy=0;" edge="1" parent="1" source="JS7kzMShgllTpScdHAG9-6" target="JS7kzMShgllTpScdHAG9-8">
          <mxGeometry relative="1" as="geometry" />
        </mxCell>
        <mxCell id="JS7kzMShgllTpScdHAG9-6" value="分享购买、分享帮卖" style="rounded=1;whiteSpace=wrap;html=1;" vertex="1" parent="1">
          <mxGeometry x="420" y="360" width="120" height="60" as="geometry" />
        </mxCell>
        <mxCell id="JS7kzMShgllTpScdHAG9-11" style="edgeStyle=orthogonalEdgeStyle;rounded=0;orthogonalLoop=1;jettySize=auto;html=1;entryX=0.5;entryY=0;entryDx=0;entryDy=0;" edge="1" parent="1" source="JS7kzMShgllTpScdHAG9-8" target="JS7kzMShgllTpScdHAG9-9">
          <mxGeometry relative="1" as="geometry">
            <mxPoint x="480" y="540" as="targetPoint" />
          </mxGeometry>
        </mxCell>
        <mxCell id="JS7kzMShgllTpScdHAG9-12" value="自提" style="edgeLabel;html=1;align=center;verticalAlign=middle;resizable=0;points=[];" vertex="1" connectable="0" parent="JS7kzMShgllTpScdHAG9-11">
          <mxGeometry x="-0.1714" y="-1" relative="1" as="geometry">
            <mxPoint as="offset" />
          </mxGeometry>
        </mxCell>
        <mxCell id="JS7kzMShgllTpScdHAG9-13" style="edgeStyle=orthogonalEdgeStyle;rounded=0;orthogonalLoop=1;jettySize=auto;html=1;entryX=0;entryY=0.5;entryDx=0;entryDy=0;" edge="1" parent="1" source="JS7kzMShgllTpScdHAG9-8" target="JS7kzMShgllTpScdHAG9-10">
          <mxGeometry relative="1" as="geometry" />
        </mxCell>
        <mxCell id="JS7kzMShgllTpScdHAG9-14" value="快递" style="edgeLabel;html=1;align=center;verticalAlign=middle;resizable=0;points=[];" vertex="1" connectable="0" parent="JS7kzMShgllTpScdHAG9-13">
          <mxGeometry x="-0.3857" relative="1" as="geometry">
            <mxPoint x="12" as="offset" />
          </mxGeometry>
        </mxCell>
        <mxCell id="JS7kzMShgllTpScdHAG9-8" value="自提/快递" style="rhombus;whiteSpace=wrap;html=1;" vertex="1" parent="1">
          <mxGeometry x="370" y="450" width="220" height="60" as="geometry" />
        </mxCell>
        <mxCell id="JS7kzMShgllTpScdHAG9-22" style="edgeStyle=orthogonalEdgeStyle;rounded=0;orthogonalLoop=1;jettySize=auto;html=1;entryX=0.5;entryY=0;entryDx=0;entryDy=0;" edge="1" parent="1" source="JS7kzMShgllTpScdHAG9-9" target="JS7kzMShgllTpScdHAG9-21">
          <mxGeometry relative="1" as="geometry" />
        </mxCell>
        <mxCell id="JS7kzMShgllTpScdHAG9-9" value="订单发货，生成核销码" style="rounded=1;whiteSpace=wrap;html=1;" vertex="1" parent="1">
          <mxGeometry x="420" y="580" width="120" height="60" as="geometry" />
        </mxCell>
        <mxCell id="JS7kzMShgllTpScdHAG9-17" style="edgeStyle=orthogonalEdgeStyle;rounded=0;orthogonalLoop=1;jettySize=auto;html=1;entryX=0.5;entryY=0;entryDx=0;entryDy=0;" edge="1" parent="1" source="JS7kzMShgllTpScdHAG9-10" target="JS7kzMShgllTpScdHAG9-15">
          <mxGeometry relative="1" as="geometry" />
        </mxCell>
        <mxCell id="JS7kzMShgllTpScdHAG9-10" value="订单管理填写物流公司、物流单号" style="rounded=1;whiteSpace=wrap;html=1;" vertex="1" parent="1">
          <mxGeometry x="680" y="450" width="120" height="60" as="geometry" />
        </mxCell>
        <mxCell id="JS7kzMShgllTpScdHAG9-29" style="edgeStyle=orthogonalEdgeStyle;rounded=0;orthogonalLoop=1;jettySize=auto;html=1;entryX=1;entryY=0.5;entryDx=0;entryDy=0;" edge="1" parent="1" source="JS7kzMShgllTpScdHAG9-15" target="JS7kzMShgllTpScdHAG9-23">
          <mxGeometry relative="1" as="geometry">
            <Array as="points">
              <mxPoint x="740" y="800" />
            </Array>
          </mxGeometry>
        </mxCell>
        <mxCell id="JS7kzMShgllTpScdHAG9-15" value="订单已发货" style="rounded=1;whiteSpace=wrap;html=1;" vertex="1" parent="1">
          <mxGeometry x="680" y="680" width="120" height="60" as="geometry" />
        </mxCell>
        <mxCell id="JS7kzMShgllTpScdHAG9-33" style="edgeStyle=orthogonalEdgeStyle;rounded=0;orthogonalLoop=1;jettySize=auto;html=1;entryX=0;entryY=0.5;entryDx=0;entryDy=0;exitX=0.5;exitY=1;exitDx=0;exitDy=0;" edge="1" parent="1" source="JS7kzMShgllTpScdHAG9-16" target="JS7kzMShgllTpScdHAG9-21">
          <mxGeometry relative="1" as="geometry" />
        </mxCell>
        <mxCell id="JS7kzMShgllTpScdHAG9-16" value="去自提，获取核销码" style="rounded=1;whiteSpace=wrap;html=1;" vertex="1" parent="1">
          <mxGeometry x="170" y="585" width="120" height="60" as="geometry" />
        </mxCell>
        <mxCell id="JS7kzMShgllTpScdHAG9-18" style="edgeStyle=orthogonalEdgeStyle;rounded=0;orthogonalLoop=1;jettySize=auto;html=1;entryX=0.029;entryY=0.512;entryDx=0;entryDy=0;entryPerimeter=0;" edge="1" parent="1" source="JS7kzMShgllTpScdHAG9-5" target="JS7kzMShgllTpScdHAG9-8">
          <mxGeometry relative="1" as="geometry" />
        </mxCell>
        <mxCell id="JS7kzMShgllTpScdHAG9-20" style="edgeStyle=orthogonalEdgeStyle;rounded=0;orthogonalLoop=1;jettySize=auto;html=1;entryX=1.006;entryY=0.433;entryDx=0;entryDy=0;entryPerimeter=0;" edge="1" parent="1" source="JS7kzMShgllTpScdHAG9-9" target="JS7kzMShgllTpScdHAG9-16">
          <mxGeometry relative="1" as="geometry">
            <Array as="points">
              <mxPoint x="420" y="610" />
              <mxPoint x="420" y="610" />
            </Array>
          </mxGeometry>
        </mxCell>
        <mxCell id="JS7kzMShgllTpScdHAG9-30" style="edgeStyle=orthogonalEdgeStyle;rounded=0;orthogonalLoop=1;jettySize=auto;html=1;" edge="1" parent="1" source="JS7kzMShgllTpScdHAG9-21" target="JS7kzMShgllTpScdHAG9-23">
          <mxGeometry relative="1" as="geometry">
            <Array as="points">
              <mxPoint x="480" y="800" />
            </Array>
          </mxGeometry>
        </mxCell>
        <mxCell id="JS7kzMShgllTpScdHAG9-21" value="商品核销，订单状态修改为已提货" style="rounded=1;whiteSpace=wrap;html=1;" vertex="1" parent="1">
          <mxGeometry x="420" y="680" width="120" height="60" as="geometry" />
        </mxCell>
        <mxCell id="JS7kzMShgllTpScdHAG9-23" value="订单已收货" style="rounded=1;whiteSpace=wrap;html=1;" vertex="1" parent="1">
          <mxGeometry x="170" y="770" width="120" height="60" as="geometry" />
        </mxCell>
      </root>
    </mxGraphModel>
  </diagram>
</mxfile>
